# xmcd
#
# Track frame offsets:
#	150
#	13350
#	27452
#	40729
#	52419
#	66460
#	81477
#	97034
#	110630
#	123537
#	135154
#	148833
#	161810
#	173825
#	187272
#
# Disc length: 2665 seconds
#
# Revision: 0
# Processed by: cddbd v1.5.2PL0 Copyright (c) Steve Scherf et al.
# Submitted via: audiograbber 1.83.01
#
DISCID=ed0a670f
DTITLE=CB60015 - Chartbuster Hank Williams (CB)
DYEAR=1900
DGENRE=Karaoke
TTITLE0=Hank Williams - Cold Cold Heart
TTITLE1=Hank Williams - Hey Good Lookin'
TTITLE2=Hank Williams - Honky Tonkin'
TTITLE3=Hank Williams - I Can't Help It If I'm Still In Love With You
TTITLE4=Hank Williams - I'm So Lonesome I Could Cry
TTITLE5=Hank Williams - Jambalaya
TTITLE6=Hank Williams - Kaw-Liga
TTITLE7=Hank Williams - Lovesick Blues
TTITLE8=Hank Williams - Take These Chains From My Heart
TTITLE9=Hank Williams - Why Don't You Love Me
TTITLE10=Hank Williams - Your Cheatin' Heart
TTITLE11=Hank Williams - Long Gone Lonesome Blues
TTITLE12=Hank Williams - Moanin' The Blues
TTITLE13=Hank Williams - Move It On Over
TTITLE14=Hank Williams - My Bucket's Got A Hole In It
EXTD=
EXTT0=
EXTT1=
EXTT2=
EXTT3=
EXTT4=
EXTT5=
EXTT6=
EXTT7=
EXTT8=
EXTT9=
EXTT10=
EXTT11=
EXTT12=
EXTT13=
EXTT14=
PLAYORDER=
